<svg viewBox="0 0 50 33" focusable="false" class="chakra-icon css-1rhw4s7"><path fill-rule="evenodd" clip-rule="evenodd" d="M0 7.5C0 3.35787 3.35786 0 7.5 0H42.5C46.6421 0 50 3.35786 50 7.5V25C50 29.1421 46.6421 32.5 42.5 32.5H7.5C3.35786 32.5 0 29.1421 0 25V7.5ZM25 16.25C25 21.7728 20.5228 26.25 15 26.25C9.47715 26.25 5 21.7728 5 16.25C5 10.7272 9.47715 6.25 15 6.25C20.5228 6.25 25 10.7272 25 16.25ZM25 16.25C25 10.7272 29.4772 6.25 35 6.25C40.5228 6.25 45 10.7272 45 16.25C45 21.7728 40.5228 26.25 35 26.25C29.4772 26.25 25 21.7728 25 16.25Z" fill="currentColor"></path></svg>